<mxfile host="app.diagrams.net" modified="2022-04-07T15:58:21.471Z" agent="5.0 (Windows NT 10.0; Win64; x64) AppleWebKit/537.36 (KHTML, like Gecko) Chrome/100.0.4896.75 Safari/537.36" etag="WcpJs8dgc8k6Y0GocGQi" version="17.4.1" type="github">
  <diagram id="C5RBs43oDa-KdzZeNtuy" name="Page-1">
    <mxGraphModel dx="853" dy="364" grid="1" gridSize="10" guides="1" tooltips="1" connect="1" arrows="1" fold="1" page="1" pageScale="1" pageWidth="827" pageHeight="1169" math="0" shadow="0">
      <root>
        <mxCell id="WIyWlLk6GJQsqaUBKTNV-0" />
        <mxCell id="WIyWlLk6GJQsqaUBKTNV-1" parent="WIyWlLk6GJQsqaUBKTNV-0" />
        <mxCell id="sBJBv4OSmkxFQk80KIFU-10" style="edgeStyle=orthogonalEdgeStyle;rounded=0;orthogonalLoop=1;jettySize=auto;html=1;entryX=0.5;entryY=0;entryDx=0;entryDy=0;" edge="1" parent="WIyWlLk6GJQsqaUBKTNV-1" source="sBJBv4OSmkxFQk80KIFU-4" target="sBJBv4OSmkxFQk80KIFU-7">
          <mxGeometry relative="1" as="geometry" />
        </mxCell>
        <mxCell id="sBJBv4OSmkxFQk80KIFU-4" value="User arrives via UID link" style="rounded=1;whiteSpace=wrap;html=1;" vertex="1" parent="WIyWlLk6GJQsqaUBKTNV-1">
          <mxGeometry x="130" y="50" width="180" height="60" as="geometry" />
        </mxCell>
        <mxCell id="sBJBv4OSmkxFQk80KIFU-20" style="edgeStyle=orthogonalEdgeStyle;rounded=0;orthogonalLoop=1;jettySize=auto;html=1;entryX=0.5;entryY=0;entryDx=0;entryDy=0;" edge="1" parent="WIyWlLk6GJQsqaUBKTNV-1" source="sBJBv4OSmkxFQk80KIFU-7" target="sBJBv4OSmkxFQk80KIFU-17">
          <mxGeometry relative="1" as="geometry" />
        </mxCell>
        <mxCell id="sBJBv4OSmkxFQk80KIFU-7" value="UniteLoginFromLanding:&lt;br&gt;Evaluates UID" style="rounded=0;whiteSpace=wrap;html=1;" vertex="1" parent="WIyWlLk6GJQsqaUBKTNV-1">
          <mxGeometry x="150" y="160" width="140" height="60" as="geometry" />
        </mxCell>
        <mxCell id="sBJBv4OSmkxFQk80KIFU-16" style="edgeStyle=orthogonalEdgeStyle;rounded=0;orthogonalLoop=1;jettySize=auto;html=1;entryX=0;entryY=0.5;entryDx=0;entryDy=0;" edge="1" parent="WIyWlLk6GJQsqaUBKTNV-1" source="sBJBv4OSmkxFQk80KIFU-11" target="sBJBv4OSmkxFQk80KIFU-15">
          <mxGeometry relative="1" as="geometry" />
        </mxCell>
        <mxCell id="sBJBv4OSmkxFQk80KIFU-30" style="edgeStyle=orthogonalEdgeStyle;rounded=0;orthogonalLoop=1;jettySize=auto;html=1;" edge="1" parent="WIyWlLk6GJQsqaUBKTNV-1" source="sBJBv4OSmkxFQk80KIFU-11" target="sBJBv4OSmkxFQk80KIFU-29">
          <mxGeometry relative="1" as="geometry" />
        </mxCell>
        <mxCell id="sBJBv4OSmkxFQk80KIFU-11" value="Do they have MFA record? (MFAValidated)" style="rounded=1;whiteSpace=wrap;html=1;" vertex="1" parent="WIyWlLk6GJQsqaUBKTNV-1">
          <mxGeometry x="160" y="370" width="120" height="60" as="geometry" />
        </mxCell>
        <mxCell id="sBJBv4OSmkxFQk80KIFU-26" style="edgeStyle=orthogonalEdgeStyle;rounded=0;orthogonalLoop=1;jettySize=auto;html=1;entryX=0.5;entryY=1;entryDx=0;entryDy=0;" edge="1" parent="WIyWlLk6GJQsqaUBKTNV-1" source="sBJBv4OSmkxFQk80KIFU-15" target="sBJBv4OSmkxFQk80KIFU-25">
          <mxGeometry relative="1" as="geometry" />
        </mxCell>
        <mxCell id="sBJBv4OSmkxFQk80KIFU-15" value="Page requesting MFA phone numbrt" style="rounded=1;whiteSpace=wrap;html=1;" vertex="1" parent="WIyWlLk6GJQsqaUBKTNV-1">
          <mxGeometry x="354" y="370" width="120" height="60" as="geometry" />
        </mxCell>
        <mxCell id="sBJBv4OSmkxFQk80KIFU-19" style="edgeStyle=orthogonalEdgeStyle;rounded=0;orthogonalLoop=1;jettySize=auto;html=1;entryX=1;entryY=0.5;entryDx=0;entryDy=0;" edge="1" parent="WIyWlLk6GJQsqaUBKTNV-1" source="sBJBv4OSmkxFQk80KIFU-17" target="sBJBv4OSmkxFQk80KIFU-18">
          <mxGeometry relative="1" as="geometry" />
        </mxCell>
        <mxCell id="sBJBv4OSmkxFQk80KIFU-21" style="edgeStyle=orthogonalEdgeStyle;rounded=0;orthogonalLoop=1;jettySize=auto;html=1;entryX=0.5;entryY=0;entryDx=0;entryDy=0;" edge="1" parent="WIyWlLk6GJQsqaUBKTNV-1" source="sBJBv4OSmkxFQk80KIFU-17" target="sBJBv4OSmkxFQk80KIFU-11">
          <mxGeometry relative="1" as="geometry" />
        </mxCell>
        <mxCell id="sBJBv4OSmkxFQk80KIFU-17" value="Valid user?" style="rounded=1;whiteSpace=wrap;html=1;" vertex="1" parent="WIyWlLk6GJQsqaUBKTNV-1">
          <mxGeometry x="160" y="250" width="120" height="60" as="geometry" />
        </mxCell>
        <mxCell id="sBJBv4OSmkxFQk80KIFU-18" value="&quot;Sorry&quot; Error/info page" style="rounded=1;whiteSpace=wrap;html=1;" vertex="1" parent="WIyWlLk6GJQsqaUBKTNV-1">
          <mxGeometry x="20" y="250" width="80" height="60" as="geometry" />
        </mxCell>
        <mxCell id="sBJBv4OSmkxFQk80KIFU-41" style="edgeStyle=orthogonalEdgeStyle;rounded=0;orthogonalLoop=1;jettySize=auto;html=1;" edge="1" parent="WIyWlLk6GJQsqaUBKTNV-1" source="sBJBv4OSmkxFQk80KIFU-22" target="sBJBv4OSmkxFQk80KIFU-39">
          <mxGeometry relative="1" as="geometry" />
        </mxCell>
        <mxCell id="sBJBv4OSmkxFQk80KIFU-22" value="Yes" style="text;html=1;align=center;verticalAlign=middle;resizable=0;points=[];autosize=1;strokeColor=none;fillColor=none;" vertex="1" parent="WIyWlLk6GJQsqaUBKTNV-1">
          <mxGeometry x="220" y="330" width="30" height="20" as="geometry" />
        </mxCell>
        <mxCell id="sBJBv4OSmkxFQk80KIFU-23" value="No" style="text;html=1;align=center;verticalAlign=middle;resizable=0;points=[];autosize=1;strokeColor=none;fillColor=none;" vertex="1" parent="WIyWlLk6GJQsqaUBKTNV-1">
          <mxGeometry x="115" y="260" width="30" height="20" as="geometry" />
        </mxCell>
        <mxCell id="sBJBv4OSmkxFQk80KIFU-24" value="No" style="text;html=1;align=center;verticalAlign=middle;resizable=0;points=[];autosize=1;strokeColor=none;fillColor=none;" vertex="1" parent="WIyWlLk6GJQsqaUBKTNV-1">
          <mxGeometry x="300" y="380" width="30" height="20" as="geometry" />
        </mxCell>
        <mxCell id="sBJBv4OSmkxFQk80KIFU-28" style="edgeStyle=orthogonalEdgeStyle;rounded=0;orthogonalLoop=1;jettySize=auto;html=1;entryX=1;entryY=0.5;entryDx=0;entryDy=0;" edge="1" parent="WIyWlLk6GJQsqaUBKTNV-1" source="sBJBv4OSmkxFQk80KIFU-25" target="sBJBv4OSmkxFQk80KIFU-4">
          <mxGeometry relative="1" as="geometry" />
        </mxCell>
        <mxCell id="sBJBv4OSmkxFQk80KIFU-25" value="UniteRegisterMFA" style="rounded=0;whiteSpace=wrap;html=1;" vertex="1" parent="WIyWlLk6GJQsqaUBKTNV-1">
          <mxGeometry x="354" y="250" width="120" height="60" as="geometry" />
        </mxCell>
        <mxCell id="sBJBv4OSmkxFQk80KIFU-33" style="edgeStyle=orthogonalEdgeStyle;rounded=0;orthogonalLoop=1;jettySize=auto;html=1;" edge="1" parent="WIyWlLk6GJQsqaUBKTNV-1" source="sBJBv4OSmkxFQk80KIFU-29" target="sBJBv4OSmkxFQk80KIFU-32">
          <mxGeometry relative="1" as="geometry" />
        </mxCell>
        <mxCell id="sBJBv4OSmkxFQk80KIFU-29" value="Either verify &quot;Last 4?&quot; or just send MFA text and accept code" style="rounded=1;whiteSpace=wrap;html=1;" vertex="1" parent="WIyWlLk6GJQsqaUBKTNV-1">
          <mxGeometry x="160" y="480" width="120" height="60" as="geometry" />
        </mxCell>
        <mxCell id="sBJBv4OSmkxFQk80KIFU-31" value="Yes&lt;br&gt;" style="text;html=1;align=center;verticalAlign=middle;resizable=0;points=[];autosize=1;strokeColor=none;fillColor=none;" vertex="1" parent="WIyWlLk6GJQsqaUBKTNV-1">
          <mxGeometry x="220" y="440" width="30" height="20" as="geometry" />
        </mxCell>
        <mxCell id="sBJBv4OSmkxFQk80KIFU-35" style="edgeStyle=orthogonalEdgeStyle;rounded=0;orthogonalLoop=1;jettySize=auto;html=1;" edge="1" parent="WIyWlLk6GJQsqaUBKTNV-1" source="sBJBv4OSmkxFQk80KIFU-32" target="sBJBv4OSmkxFQk80KIFU-34">
          <mxGeometry relative="1" as="geometry" />
        </mxCell>
        <mxCell id="sBJBv4OSmkxFQk80KIFU-32" value="UniteVerifyMFA" style="rounded=0;whiteSpace=wrap;html=1;" vertex="1" parent="WIyWlLk6GJQsqaUBKTNV-1">
          <mxGeometry x="160" y="580" width="120" height="60" as="geometry" />
        </mxCell>
        <mxCell id="sBJBv4OSmkxFQk80KIFU-36" style="edgeStyle=orthogonalEdgeStyle;rounded=0;orthogonalLoop=1;jettySize=auto;html=1;entryX=0;entryY=0.5;entryDx=0;entryDy=0;" edge="1" parent="WIyWlLk6GJQsqaUBKTNV-1" source="sBJBv4OSmkxFQk80KIFU-34" target="sBJBv4OSmkxFQk80KIFU-29">
          <mxGeometry relative="1" as="geometry">
            <Array as="points">
              <mxPoint x="410" y="680" />
              <mxPoint x="130" y="680" />
              <mxPoint x="130" y="510" />
            </Array>
          </mxGeometry>
        </mxCell>
        <mxCell id="sBJBv4OSmkxFQk80KIFU-42" style="edgeStyle=orthogonalEdgeStyle;rounded=0;orthogonalLoop=1;jettySize=auto;html=1;entryX=0.5;entryY=1;entryDx=0;entryDy=0;" edge="1" parent="WIyWlLk6GJQsqaUBKTNV-1" source="sBJBv4OSmkxFQk80KIFU-34" target="sBJBv4OSmkxFQk80KIFU-38">
          <mxGeometry relative="1" as="geometry" />
        </mxCell>
        <mxCell id="sBJBv4OSmkxFQk80KIFU-34" value="Success?" style="rounded=1;whiteSpace=wrap;html=1;" vertex="1" parent="WIyWlLk6GJQsqaUBKTNV-1">
          <mxGeometry x="350" y="580" width="120" height="60" as="geometry" />
        </mxCell>
        <mxCell id="sBJBv4OSmkxFQk80KIFU-37" value="No" style="text;html=1;align=center;verticalAlign=middle;resizable=0;points=[];autosize=1;strokeColor=none;fillColor=none;" vertex="1" parent="WIyWlLk6GJQsqaUBKTNV-1">
          <mxGeometry x="380" y="650" width="30" height="20" as="geometry" />
        </mxCell>
        <mxCell id="sBJBv4OSmkxFQk80KIFU-45" style="edgeStyle=orthogonalEdgeStyle;rounded=0;orthogonalLoop=1;jettySize=auto;html=1;" edge="1" parent="WIyWlLk6GJQsqaUBKTNV-1" source="sBJBv4OSmkxFQk80KIFU-38" target="sBJBv4OSmkxFQk80KIFU-44">
          <mxGeometry relative="1" as="geometry" />
        </mxCell>
        <mxCell id="sBJBv4OSmkxFQk80KIFU-38" value="AuthToken returned" style="rounded=1;whiteSpace=wrap;html=1;" vertex="1" parent="WIyWlLk6GJQsqaUBKTNV-1">
          <mxGeometry x="350" y="480" width="120" height="60" as="geometry" />
        </mxCell>
        <mxCell id="sBJBv4OSmkxFQk80KIFU-39" value="*UserToken returned" style="text;html=1;align=center;verticalAlign=middle;resizable=0;points=[];autosize=1;strokeColor=none;fillColor=none;" vertex="1" parent="WIyWlLk6GJQsqaUBKTNV-1">
          <mxGeometry x="265" y="330" width="130" height="20" as="geometry" />
        </mxCell>
        <mxCell id="sBJBv4OSmkxFQk80KIFU-43" value="Yes" style="text;html=1;align=center;verticalAlign=middle;resizable=0;points=[];autosize=1;strokeColor=none;fillColor=none;" vertex="1" parent="WIyWlLk6GJQsqaUBKTNV-1">
          <mxGeometry x="375" y="550" width="30" height="20" as="geometry" />
        </mxCell>
        <mxCell id="sBJBv4OSmkxFQk80KIFU-44" value="All calls now made with UID, UserToken and AuthToken" style="rounded=1;whiteSpace=wrap;html=1;" vertex="1" parent="WIyWlLk6GJQsqaUBKTNV-1">
          <mxGeometry x="530" y="480" width="120" height="60" as="geometry" />
        </mxCell>
      </root>
    </mxGraphModel>
  </diagram>
</mxfile>
